<svg id="logo" version="1.0" xmlns="http://www.w3.org/2000/svg"
 width="136.000000pt" height="115.000000pt" viewBox="0 0 136.000000 115.000000"
 preserveAspectRatio="xMidYMid meet">
<metadata>
Created by potrace 1.16, written by Peter Selinger 2001-2019
</metadata>
<g transform="translate(0.000000,115.000000) scale(0.100000,-0.100000)"
fill="#000000" stroke="none">
<path d="M633 1064 c-22 -11 -37 -30 -48 -59 -14 -36 -24 -45 -71 -65 -72 -29
-153 -96 -194 -159 -57 -89 -92 -241 -55 -241 10 0 15 10 15 30 0 44 37 147
70 195 41 60 104 114 168 142 l54 26 24 -31 c34 -43 82 -57 127 -38 75 31 96
122 41 176 -37 38 -87 47 -131 24z m115 -52 c55 -65 -21 -157 -97 -118 -58 31
-56 109 4 144 28 17 66 6 93 -26z"/>
<path d="M907 903 c-4 -3 20 -30 52 -60 98 -88 145 -194 139 -315 l-3 -63 -39
-6 c-138 -22 -121 -223 18 -223 99 0 147 114 81 193 -22 25 -25 39 -25 104 0
135 -57 262 -153 341 -44 36 -58 42 -70 29z m220 -495 c33 -31 32 -90 -3 -117
-32 -25 -62 -27 -92 -5 -65 45 -36 143 42 144 17 0 40 -9 53 -22z"/>
<path d="M563 693 c-62 -37 -113 -73 -113 -79 0 -6 11 -16 25 -22 14 -6 25
-16 25 -22 0 -6 -11 -16 -25 -22 -14 -6 -25 -16 -25 -23 0 -6 11 -18 25 -25
32 -17 31 -24 -1 -39 -14 -6 -24 -17 -21 -24 3 -10 185 -126 224 -143 14 -7
243 127 243 142 0 7 -12 20 -27 29 l-26 18 26 14 c34 17 34 36 2 53 -14 7 -25
16 -25 20 0 4 11 13 25 20 14 7 25 19 25 26 0 13 -213 144 -234 144 -6 0 -62
-30 -123 -67z m220 -23 c49 -29 85 -56 80 -60 -4 -4 -46 -29 -92 -56 l-83 -48
-52 29 c-28 16 -70 41 -94 55 l-43 27 93 55 c51 31 95 55 98 54 3 -2 45 -27
93 -56z m-172 -160 c37 -22 71 -40 75 -40 4 0 38 18 76 40 56 34 71 39 88 30
11 -6 20 -12 20 -15 0 -4 -159 -102 -175 -107 -6 -2 -52 21 -103 51 -85 48
-91 54 -75 67 10 7 20 14 22 14 3 0 35 -18 72 -40z m-2 -90 c37 -22 72 -40 79
-40 6 0 41 18 77 40 72 44 78 46 93 27 9 -10 -9 -25 -78 -66 -50 -29 -96 -51
-102 -48 -7 2 -51 27 -96 55 -73 44 -81 51 -65 61 24 14 16 16 92 -29z"/>
<path d="M237 440 c-36 -28 -52 -81 -37 -124 16 -49 42 -68 102 -74 41 -4 62
-12 93 -39 99 -84 244 -126 362 -104 71 13 163 48 163 62 0 18 -20 18 -62 -1
-146 -64 -323 -38 -438 66 l-39 35 21 35 c26 44 18 96 -22 136 -36 35 -103 39
-143 8z m115 -24 c44 -33 42 -98 -4 -130 -76 -53 -162 51 -98 119 26 28 74 33
102 11z"/>
</g>
</svg>